<svg xmlns="http://www.w3.org/2000/svg" enable-background="new 0 0 24 24" viewBox="0 0 24 24" id="Logstash">
  <path fill="#ffd288" d="M21.75,24h-6.882c-0.276,0-0.5-0.224-0.5-0.5V13.15c0-0.276,0.224-0.5,0.5-0.5h6.882c0.276,0,0.5,0.224,0.5,0.5V23.5C22.25,23.776,22.026,24,21.75,24z" class="colorff7a55 svgShape"></path>
  <path fill="#382506" d="M12.574,24C7.454,24,1.75,20.135,1.75,14.588V0.5c0-0.276,0.224-0.5,0.5-0.5h3.441c3.933,0,7.383,3.458,7.383,7.4v16.1C13.074,23.776,12.85,24,12.574,24z M2.75,1v13.588c0,4.643,4.822,8.152,9.324,8.398V7.4c0-3.35-3.042-6.4-6.383-6.4H2.75z" class="color110638 svgShape"></path>
</svg>
