<svg xmlns="http://www.w3.org/2000/svg" fill="none" viewBox="0 0 24 24" id="send">
  <path fill="#ffd288" fill-rule="evenodd" d="M3.9537 4.19347C2.82245 3.77254 1.68264 4.79211 1.97539 5.9631L3.45429 11.8787C3.4742 11.9584 3.4742 12.0416 3.45429 12.1213L1.97539 18.0369C1.68264 19.2079 2.82245 20.2275 3.9537 19.8065L21.1556 13.4058C22.4581 12.9212 22.4581 11.0788 21.1556 10.5942L3.9537 4.19347ZM2.94553 5.72057C2.84795 5.33024 3.22788 4.99038 3.60497 5.13069L20.7225 11.5H4.39039L2.94553 5.72057ZM4.39039 12.5L2.94553 18.2794C2.84795 18.6698 3.22788 19.0096 3.60497 18.8693L20.7225 12.5H4.39039Z" clip-rule="evenodd" class="color000000 svgShape"></path>
</svg>
